<svg width="512" height="512" viewBox="0 0 512 512" fill="none" xmlns="http://www.w3.org/2000/svg">
  <defs>
    <linearGradient id="liftline-gradient" x1="54" y1="28" x2="470" y2="494" gradientUnits="userSpaceOnUse">
      <stop stop-color="#2F75FF"/>
      <stop offset="0.55" stop-color="#405FEF"/>
      <stop offset="1" stop-color="#6554DB"/>
    </linearGradient>
    <radialGradient id="liftline-highlight" cx="0" cy="0" r="1" gradientTransform="translate(122 82) rotate(45) scale(330)" gradientUnits="userSpaceOnUse">
      <stop stop-color="white" stop-opacity="0.15"/>
      <stop offset="1" stop-color="white" stop-opacity="0"/>
    </radialGradient>
  </defs>
  <rect width="512" height="512" fill="url(#liftline-gradient)"/>
  <rect width="512" height="512" fill="url(#liftline-highlight)"/>
  <g transform="translate(112 112) scale(12)" stroke="white" stroke-width="2.15" stroke-linecap="round" stroke-linejoin="round">
    <path d="M17.596 12.768a2 2 0 1 0 2.829-2.829l-1.768-1.767a2 2 0 0 0 2.828-2.829l-2.828-2.828a2 2 0 0 0-2.829 2.828l-1.767-1.768a2 2 0 1 0-2.829 2.829z"/>
    <path d="m2.5 21.5 1.4-1.4"/>
    <path d="m20.1 3.9 1.4-1.4"/>
    <path d="M5.343 21.485a2 2 0 1 0 2.829-2.828l1.767 1.768a2 2 0 1 0 2.829-2.829l-6.364-6.364a2 2 0 1 0-2.829 2.829l1.768 1.767a2 2 0 0 0-2.828 2.829z"/>
    <path d="m9.6 14.4 4.8-4.8"/>
  </g>
</svg>
